<?xml version="1.0" standalone="no"?>
<!DOCTYPE svg PUBLIC "-//W3C//DTD SVG 20010904//EN"
 "http://www.w3.org/TR/2001/REC-SVG-20010904/DTD/svg10.dtd">
<svg version="1.0" xmlns="http://www.w3.org/2000/svg"
 width="800.000000pt" height="800.000000pt" viewBox="0 0 800.000000 800.000000"
 preserveAspectRatio="xMidYMid meet">

<g transform="translate(0.000000,800.000000) scale(0.100000,-0.100000)"
fill="#ffffff" stroke="none">
<path d="M2096 6839 c-1039 -516 -1891 -941 -1893 -943 -3 -3 302 -623 312
-634 1 -2 786 386 1744 862 l1741 865 1741 -865 c958 -476 1743 -864 1744
-862 10 11 315 631 312 634 -11 11 -3789 1884 -3800 1883 -6 0 -862 -423
-1901 -940z"/>
<path d="M687 4549 c-91 -15 -168 -77 -211 -169 l-21 -45 0 -2050 0 -2050 287
-3 288 -2 2 552 3 553 2960 0 2960 0 3 -552 2 -553 290 0 290 0 0 825 0 825
-3255 0 -3255 0 0 1213 c0 1364 5 1276 -75 1365 -68 76 -164 109 -268 91z"/>
<path d="M1804 4135 c-176 -38 -331 -181 -384 -353 -22 -71 -27 -206 -9 -282
52 -228 267 -394 509 -394 462 0 695 557 370 884 -132 133 -304 185 -486 145z"/>
<path d="M2882 3834 c-29 -14 -65 -42 -82 -62 -58 -71 -60 -86 -60 -534 l0
-408 -558 0 c-475 0 -565 -2 -603 -15 -131 -45 -199 -187 -157 -327 16 -53 78
-121 136 -150 l47 -23 2970 0 2970 0 3 265 c1 146 -1 333 -6 416 -8 143 -10
153 -42 213 -60 112 -172 194 -310 226 -56 13 -4159 425 -4231 425 -14 0 -48
-12 -77 -26z"/>
</g>
</svg>
